<svg width="96" height="96" viewBox="0 0 96 96" fill="none" xmlns="http://www.w3.org/2000/svg">
<g clip-path="url(#clip0_20_7040)">
<path d="M91.4404 4.56006H96.0004V18.2701H91.4404V4.56006Z" fill="white"/>
<path d="M86.8496 18.27H91.4396V27.42H86.8496V18.27Z" fill="white"/>
<path d="M82.29 0H91.44V4.56H82.29V0Z" fill="white"/>
<path d="M82.29 27.4199H86.85V36.5699H82.29V27.4199Z" fill="white"/>
<path d="M77.7002 36.5698H82.2902V45.7198H77.7002V36.5698Z" fill="white"/>
<path d="M77.7002 4.56006H82.2902V13.7101H77.7002V4.56006Z" fill="white"/>
<path d="M73.1396 45.7202H77.6996V54.8402H73.1396V45.7202Z" fill="white"/>
<path d="M73.1396 13.71H77.6996V22.86H73.1396V13.71Z" fill="white"/>
<path d="M68.5801 68.5801H73.1401V82.2901H68.5801V68.5801Z" fill="white"/>
<path d="M68.5801 54.8398H73.1401V63.9898H68.5801V54.8398Z" fill="white"/>
<path d="M68.5801 22.8599H73.1401V32.0099H68.5801V22.8599Z" fill="white"/>
<path d="M63.9902 32.0098H68.5802V41.1298H63.9902V32.0098Z" fill="white"/>
<path d="M63.9896 77.7001H59.4296V82.2901H54.8696V77.7001H50.2796V73.1401H45.7196V77.7001H41.1296V68.5801H36.5696V82.2901H32.0096V86.8501H27.4196V91.4101H4.55957V96.0001H54.8696V91.4101H63.9896V86.8501H68.5796V82.2901H63.9896V77.7001Z" fill="white"/>
<path d="M59.4297 63.9902H68.5797V68.5802H59.4297V63.9902Z" fill="white"/>
<path d="M59.4297 41.1299H63.9897V50.2799H59.4297V41.1299Z" fill="white"/>
<path d="M59.4297 63.9898V50.2798H54.8697V59.4298H45.7197V63.9898H59.4297Z" fill="white"/>
<path d="M41.1299 63.9902H45.7199V68.5802H41.1299V63.9902Z" fill="white"/>
<path d="M41.1299 36.5698H45.7199V41.1298H41.1299V36.5698Z" fill="white"/>
<path d="M36.5703 41.1299H41.1303V45.7199H36.5703V41.1299Z" fill="white"/>
<path d="M4.55957 32.0098H41.1296V36.5698H4.55957V32.0098Z" fill="white"/>
<path d="M27.4199 68.5801H32.0099V73.1401H27.4199V68.5801Z" fill="white"/>
<path d="M22.8604 45.7202H36.5704V50.2802H22.8604V45.7202Z" fill="white"/>
<path d="M22.8604 73.1401H27.4204V77.7001H22.8604V73.1401Z" fill="white"/>
<path d="M13.71 63.9902H27.42V68.5802H13.71V63.9902Z" fill="white"/>
<path d="M13.71 50.2798H22.86V54.8398H13.71V50.2798Z" fill="white"/>
<path d="M9.15039 77.7002H22.8604V82.2902H9.15039V77.7002Z" fill="white"/>
<path d="M9.15039 54.8398H13.7104V63.9898H9.15039V54.8398Z" fill="white"/>
<path d="M4.55957 82.29H9.14957V86.85H4.55957V82.29Z" fill="white"/>
<path d="M0 86.8501H4.56V91.4101H0V86.8501Z" fill="white"/>
</g>
<defs>
<clipPath id="clip0_20_7040">
<rect width="96" height="96" fill="white"/>
</clipPath>
</defs>
</svg>
