<svg width="96" height="96" viewBox="0 0 96 96" fill="none" xmlns="http://www.w3.org/2000/svg">
<g clip-path="url(#clip0_20_7011)">
<path d="M91.4404 4.56006H96.0004V13.7101H91.4404V4.56006Z" fill="white"/>
<path d="M86.8496 13.71H91.4396V18.27H86.8496V13.71Z" fill="white"/>
<path d="M82.29 0H91.44V4.56H82.29V0Z" fill="white"/>
<path d="M82.29 18.27H86.85V22.86H82.29V18.27Z" fill="white"/>
<path d="M77.7305 22.8599H82.2905V31.9799H77.7305V22.8599Z" fill="white"/>
<path d="M77.7305 4.56006H82.2905V9.15006H77.7305V4.56006Z" fill="white"/>
<path d="M73.1396 31.98H77.7297V36.57H73.1396V31.98Z" fill="white"/>
<path d="M73.1396 9.1499H77.7297V13.7099H73.1396V9.1499Z" fill="white"/>
<path d="M68.5801 36.5698H73.1401V41.1298H68.5801V36.5698Z" fill="white"/>
<path d="M64.0195 13.71H73.1395V18.27H64.0195V13.71Z" fill="white"/>
<path d="M64.0195 41.1299H68.5795V45.7199H64.0195V41.1299Z" fill="white"/>
<path d="M59.4297 45.7202H64.0197V50.2802H59.4297V45.7202Z" fill="white"/>
<path d="M59.4297 18.27H64.0197V22.86H59.4297V18.27Z" fill="white"/>
<path d="M54.8701 50.2798H59.4301V54.8398H54.8701V50.2798Z" fill="white"/>
<path d="M54.8701 22.8599H59.4301V27.4199H54.8701V22.8599Z" fill="white"/>
<path d="M50.2803 54.8398H54.8703V59.4298H50.2803V54.8398Z" fill="white"/>
<path d="M50.2803 27.4199H54.8703V31.9799H50.2803V27.4199Z" fill="white"/>
<path d="M45.7197 31.98H50.2797V36.57H45.7197V31.98Z" fill="white"/>
<path d="M45.72 54.8402H41.16V50.2802H36.57V45.7202H32.01V50.2802H27.45V54.8402H13.71V59.4302H32.01V63.9902H36.57V82.2902H41.16V68.5502H45.72V63.9902H50.28V59.4302H45.72V54.8402Z" fill="white"/>
<path d="M41.1602 36.5698H45.7202V41.1298H41.1602V36.5698Z" fill="white"/>
<path d="M36.5703 41.1299H41.1603V45.7199H36.5703V41.1299Z" fill="white"/>
<path d="M32.01 86.85H13.71V91.41H36.57V82.29H32.01V86.85Z" fill="white"/>
<path d="M18.2998 63.9902V77.7002H32.0098V63.9902H18.2998ZM27.4498 73.1402H22.8598V68.5502H27.4498V73.1402Z" fill="white"/>
<path d="M13.71 77.7002H18.3V82.2902H13.71V77.7002Z" fill="white"/>
<path d="M9.15039 82.29H13.7104V86.85H9.15039V82.29Z" fill="white"/>
<path d="M9.15 86.85H4.59V82.29H0L0 96H13.71V91.41H9.15V86.85Z" fill="white"/>
<path d="M9.14984 63.9902H13.7098V59.4302H4.58984V82.2902H9.14984V63.9902Z" fill="white"/>
</g>
<defs>
<clipPath id="clip0_20_7011">
<rect width="96" height="96" fill="white"/>
</clipPath>
</defs>
</svg>
