<svg width="96" height="96" viewBox="0 0 96 96" fill="none" xmlns="http://www.w3.org/2000/svg">
<g clip-path="url(#clip0_20_7084)">
<path d="M91.44 27.42H86.85V18.27H82.29V13.71H77.7V9.15H68.58V4.56H59.43V0H36.57V4.56H27.42V9.15H18.27V13.71H13.71V18.27H9.15V27.42H4.56V36.57H0V59.43H4.56V68.58H9.15V77.7H13.71V82.29H18.27V86.85H27.42V91.44H36.57V96H59.43V91.44H68.58V86.85H77.7V82.29H82.29V77.7H86.85V68.58H91.44V59.43H96V36.57H91.44V27.42ZM59.43 77.7H54.87V82.29H41.13V77.7H36.57V63.99H41.13V59.43H54.87V63.99H59.43V77.7ZM63.99 41.13H59.43V50.28H54.87V54.87H41.13V50.28H36.57V41.13H32.01V18.27H36.57V13.71H59.43V18.27H63.99V41.13Z" fill="white"/>
<path d="M54.8701 22.8599H59.4301V36.5699H54.8701V22.8599Z" fill="white"/>
<path d="M50.2803 18.27H54.8703V22.86H50.2803V18.27Z" fill="white"/>
</g>
<defs>
<clipPath id="clip0_20_7084">
<rect width="96" height="96" fill="white"/>
</clipPath>
</defs>
</svg>
