<svg width="96" height="96" viewBox="0 0 96 96" fill="none" xmlns="http://www.w3.org/2000/svg">
<path d="M89.1299 25.1396H93.7199V29.6996H89.1299V25.1396Z" fill="white"/>
<path d="M84.5703 29.6997H89.1303V34.2897H84.5703V29.6997Z" fill="white"/>
<path d="M84.5703 20.5796H89.1303V25.1396H84.5703V20.5796Z" fill="white"/>
<path d="M80.0107 25.1396H84.5707V29.6996H80.0107V25.1396Z" fill="white"/>
<path d="M80.0104 84.5699V79.9799H84.5704V75.4199H80.0104V70.8599H75.4203V75.4199H70.8604V79.9799H75.4203V84.5699H80.0104Z" fill="white"/>
<path d="M75.4199 38.8496H80.0099V47.9996H75.4199V38.8496Z" fill="white"/>
<path d="M70.8604 48H75.4203V52.56H70.8604V48Z" fill="white"/>
<path d="M70.8604 11.4297H75.4203V15.9897H70.8604V11.4297Z" fill="white"/>
<path d="M66.2705 52.5596H70.8605V57.1496H66.2705V52.5596Z" fill="white"/>
<path d="M66.2705 15.9897H70.8605V20.5797H66.2705V15.9897Z" fill="white"/>
<path d="M61.71 57.1499H66.27V61.7099H61.71V57.1499Z" fill="white"/>
<path d="M61.71 20.5796H66.27V25.1396H61.71V20.5796Z" fill="white"/>
<path d="M57.1504 61.71H61.7104V66.27H57.1504V61.71Z" fill="white"/>
<path d="M57.1504 25.1396H61.7104V29.6996H57.1504V25.1396Z" fill="white"/>
<path d="M52.5605 89.1299H57.1505V93.7199H52.5605V89.1299Z" fill="white"/>
<path d="M52.5605 66.27H57.1505V70.86H52.5605V66.27Z" fill="white"/>
<path d="M52.56 29.6997V34.2897H48V38.8497H75.42V34.2897H57.15V29.6997H52.56Z" fill="white"/>
<path d="M48 70.8599H52.56V75.4199H48V70.8599Z" fill="white"/>
<path d="M75.4204 6.83979V11.4298H80.0104V2.27979H43.4404V6.83979H75.4204Z" fill="white"/>
<path d="M43.4404 75.4199H48.0004V79.9799H43.4404V75.4199Z" fill="white"/>
<path d="M38.8506 79.98H43.4406V84.57H38.8506V79.98Z" fill="white"/>
<path d="M38.8506 6.83984H43.4406V11.4298H38.8506V6.83984Z" fill="white"/>
<path d="M34.29 84.5698H38.85V89.1298H34.29V84.5698Z" fill="white"/>
<path d="M38.8507 48H11.4307V52.56H34.2907V61.71H38.8507V48Z" fill="white"/>
<path d="M34.29 11.4297H38.85V15.9897H34.29V11.4297Z" fill="white"/>
<path d="M29.7002 89.1299H34.2902V93.7199H29.7002V89.1299Z" fill="white"/>
<path d="M29.7002 61.71H34.2902V75.42H29.7002V61.71Z" fill="white"/>
<path d="M29.7002 15.9897H34.2902V20.5797H29.7002V15.9897Z" fill="white"/>
<path d="M25.1406 75.4199H29.7006V89.1299H25.1406V75.4199Z" fill="white"/>
<path d="M25.1406 20.5796H29.7006V25.1396H25.1406V20.5796Z" fill="white"/>
<path d="M20.5801 25.1396H25.1401V29.6996H20.5801V25.1396Z" fill="white"/>
<path d="M15.9902 29.6997H20.5802V34.2897H15.9902V29.6997Z" fill="white"/>
<path d="M11.4307 66.27H15.9907V70.86H11.4307V66.27Z" fill="white"/>
<path d="M11.4307 34.2896H15.9907V38.8495H11.4307V34.2896Z" fill="white"/>
<path d="M11.4301 2.27979V6.83979H6.87012V11.4298H11.4301V15.9898H15.9901V11.4298H20.5801V6.83979H15.9901V2.27979H11.4301Z" fill="white"/>
<path d="M6.87012 70.8599H11.4301V75.4199H6.87012V70.8599Z" fill="white"/>
<path d="M6.87012 61.71H11.4301V66.27H6.87012V61.71Z" fill="white"/>
<path d="M6.87012 38.8496H11.4301V47.9996H6.87012V38.8496Z" fill="white"/>
<path d="M2.28027 66.27H6.87027V70.86H2.28027V66.27Z" fill="white"/>
</svg>
