<svg width="96" height="96" viewBox="0 0 96 96" fill="none" xmlns="http://www.w3.org/2000/svg">
<g clip-path="url(#clip0_20_6987)">
<path d="M91.4404 9.1499H96.0004V86.8499H91.4404V9.1499Z" fill="white"/>
<path d="M86.8496 86.8501H91.4396V91.4401H86.8496V86.8501Z" fill="white"/>
<path d="M86.8496 4.56006H91.4396V9.15006H86.8496V4.56006Z" fill="white"/>
<path d="M82.29 77.7002H86.85V82.2902H82.29V77.7002Z" fill="white"/>
<path d="M82.29 13.71H86.85V18.27H82.29V13.71Z" fill="white"/>
<path d="M9.15039 91.4399H86.8504V95.9999H9.15039V91.4399Z" fill="white"/>
<path d="M68.5798 18.2699H59.4298V13.7099H54.8698V9.1499H22.8598V13.7099H45.7198V18.2699H22.8598V13.7099H18.2998V27.4199H22.8598V22.8599H54.8698V27.4199H59.4298V32.0099H64.0198V36.5699H68.5798V41.1299H36.5698V36.5699H32.0098V73.1399H36.5698V45.7199H68.5798V73.1399H73.1398V22.8599H68.5798V18.2699Z" fill="white"/>
<path d="M36.5703 73.1401H68.5803V77.7001H36.5703V73.1401Z" fill="white"/>
<path d="M59.4297 59.4302H64.0197V63.9902H59.4297V59.4302Z" fill="white"/>
<path d="M59.4297 50.2798H64.0197V54.8398H59.4297V50.2798Z" fill="white"/>
<path d="M45.7197 63.9902H59.4297V68.5802H45.7197V63.9902Z" fill="white"/>
<path d="M41.1602 59.4302H45.7202V63.9902H41.1602V59.4302Z" fill="white"/>
<path d="M41.1602 50.2798H45.7202V54.8398H41.1602V50.2798Z" fill="white"/>
<path d="M27.4502 32.0098H32.0102V36.5698H27.4502V32.0098Z" fill="white"/>
<path d="M22.8604 27.4199H27.4504V32.0099H22.8604V27.4199Z" fill="white"/>
<path d="M9.15039 0H86.8504V4.56H9.15039V0Z" fill="white"/>
<path d="M9.15039 77.7002H13.7104V82.2902H9.15039V77.7002Z" fill="white"/>
<path d="M9.15039 13.71H13.7104V18.27H9.15039V13.71Z" fill="white"/>
<path d="M4.58984 86.8501H9.14984V91.4401H4.58984V86.8501Z" fill="white"/>
<path d="M4.58984 4.56006H9.14984V9.15006H4.58984V4.56006Z" fill="white"/>
<path d="M0 9.1499H4.59V86.8499H0V9.1499Z" fill="white"/>
</g>
<defs>
<clipPath id="clip0_20_6987">
<rect width="96" height="96" fill="white"/>
</clipPath>
</defs>
</svg>
